<svg width="64" height="32" viewBox="0 0 64 32" fill="none" xmlns="http://www.w3.org/2000/svg">
<path d="M14.0009 7.23832C13.3868 6.68944 13.0009 5.8908 13.0009 5C13.0009 3.34 14.3409 2 16.0009 2C17.6609 2 19.0009 3.34 19.0009 5C19.0009 5.8908 18.615 6.68944 18.0009 7.23832V10H21.5009C22.3309 10 23.0009 10.67 23.0009 11.5C23.0009 12.33 22.3309 13 21.5009 13H18.0009V26.7763C20.6621 26.1709 22.877 24.3838 24.0609 22L24.0209 21.9999C23.1509 21.9999 22.6809 20.9799 23.2509 20.3199L26.6409 16.3599C27.2109 15.6899 28.3009 16.0099 28.4209 16.8799L28.9909 20.8399C29.0809 21.4499 28.6009 21.9999 27.9809 21.9999H27.3102C25.6702 26.6599 21.2309 30 16.0009 30C10.7709 30 6.33086 26.66 4.69086 22L4.02088 21.9999C3.40088 21.9999 2.92088 21.4499 3.01088 20.8399L3.58088 16.8799C3.70088 16.0099 4.79088 15.6899 5.36088 16.3599L8.75088 20.3199C9.32088 20.9799 8.85088 21.9999 7.98088 21.9999H7.9402C9.12402 24.3836 11.3397 26.1709 14.0009 26.7764V13H10.5009C9.67089 13 9.00089 12.33 9.00089 11.5C9.00089 10.67 9.67089 10 10.5009 10H14.0009V7.23832ZM16.0009 4C15.4509 4 15.0009 4.45 15.0009 5C15.0009 5.55 15.4509 6 16.0009 6C16.5509 6 17.0009 5.55 17.0009 5C17.0009 4.45 16.5509 4 16.0009 4Z" fill="white"/>
<path d="M50.7786 24C56.8537 24 61.7786 19.0751 61.7786 13C61.7786 6.92487 56.8537 2 50.7786 2C44.7035 2 39.7786 6.92487 39.7786 13C39.7786 15.327 40.5012 17.4852 41.7342 19.2626C40.5283 18.9997 39.2179 19.3371 38.2803 20.2746L35.0984 23.4566C33.6339 24.921 33.6339 27.2954 35.0984 28.7599C36.5628 30.2243 38.9372 30.2243 40.4017 28.7599L43.5836 25.5779C44.5288 24.6327 44.8639 23.3086 44.5891 22.0947C46.3524 23.2971 48.4834 24 50.7786 24ZM50.7786 22C45.808 22 41.7786 17.9706 41.7786 13C41.7786 8.02944 45.808 4 50.7786 4C55.7492 4 59.7786 8.02944 59.7786 13C59.7786 17.9706 55.7492 22 50.7786 22Z" fill="white"/>
</svg>
